<mxfile host="65bd71144e">
    <diagram id="phxKNrEO3dnIQD7lvG0F" name="페이지-1">
        <mxGraphModel dx="1472" dy="1028" grid="1" gridSize="10" guides="1" tooltips="1" connect="1" arrows="1" fold="1" page="1" pageScale="1" pageWidth="10000" pageHeight="10000" math="0" shadow="0">
            <root>
                <mxCell id="0"/>
                <mxCell id="1" parent="0"/>
                <mxCell id="KGvLCn7wM3emNixortyG-1" value="0" style="whiteSpace=wrap;html=1;aspect=fixed;" parent="1" vertex="1">
                    <mxGeometry x="320" y="240" width="40" height="40" as="geometry"/>
                </mxCell>
                <mxCell id="KGvLCn7wM3emNixortyG-2" value="0" style="whiteSpace=wrap;html=1;aspect=fixed;" parent="1" vertex="1">
                    <mxGeometry x="360" y="240" width="40" height="40" as="geometry"/>
                </mxCell>
                <mxCell id="KGvLCn7wM3emNixortyG-3" value="0" style="whiteSpace=wrap;html=1;aspect=fixed;" parent="1" vertex="1">
                    <mxGeometry x="400" y="240" width="40" height="40" as="geometry"/>
                </mxCell>
                <mxCell id="KGvLCn7wM3emNixortyG-4" value="0" style="whiteSpace=wrap;html=1;aspect=fixed;" parent="1" vertex="1">
                    <mxGeometry x="440" y="240" width="40" height="40" as="geometry"/>
                </mxCell>
                <mxCell id="KGvLCn7wM3emNixortyG-5" value="0" style="whiteSpace=wrap;html=1;aspect=fixed;" parent="1" vertex="1">
                    <mxGeometry x="480" y="240" width="40" height="40" as="geometry"/>
                </mxCell>
                <mxCell id="KGvLCn7wM3emNixortyG-6" value="0" style="whiteSpace=wrap;html=1;aspect=fixed;" parent="1" vertex="1">
                    <mxGeometry x="520" y="240" width="40" height="40" as="geometry"/>
                </mxCell>
                <mxCell id="KGvLCn7wM3emNixortyG-7" value="&lt;span&gt;0&lt;/span&gt;" style="whiteSpace=wrap;html=1;aspect=fixed;" parent="1" vertex="1">
                    <mxGeometry x="320" y="280" width="40" height="40" as="geometry"/>
                </mxCell>
                <mxCell id="KGvLCn7wM3emNixortyG-8" value="0" style="whiteSpace=wrap;html=1;aspect=fixed;" parent="1" vertex="1">
                    <mxGeometry x="360" y="280" width="40" height="40" as="geometry"/>
                </mxCell>
                <mxCell id="KGvLCn7wM3emNixortyG-9" value="0" style="whiteSpace=wrap;html=1;aspect=fixed;" parent="1" vertex="1">
                    <mxGeometry x="400" y="280" width="40" height="40" as="geometry"/>
                </mxCell>
                <mxCell id="KGvLCn7wM3emNixortyG-10" value="0" style="whiteSpace=wrap;html=1;aspect=fixed;" parent="1" vertex="1">
                    <mxGeometry x="440" y="280" width="40" height="40" as="geometry"/>
                </mxCell>
                <mxCell id="KGvLCn7wM3emNixortyG-11" value="0" style="whiteSpace=wrap;html=1;aspect=fixed;" parent="1" vertex="1">
                    <mxGeometry x="480" y="280" width="40" height="40" as="geometry"/>
                </mxCell>
                <mxCell id="KGvLCn7wM3emNixortyG-12" value="0" style="whiteSpace=wrap;html=1;aspect=fixed;" parent="1" vertex="1">
                    <mxGeometry x="520" y="280" width="40" height="40" as="geometry"/>
                </mxCell>
                <mxCell id="KGvLCn7wM3emNixortyG-19" value="0" style="whiteSpace=wrap;html=1;aspect=fixed;" parent="1" vertex="1">
                    <mxGeometry x="320" y="320" width="40" height="40" as="geometry"/>
                </mxCell>
                <mxCell id="KGvLCn7wM3emNixortyG-20" value="0" style="whiteSpace=wrap;html=1;aspect=fixed;" parent="1" vertex="1">
                    <mxGeometry x="360" y="320" width="40" height="40" as="geometry"/>
                </mxCell>
                <mxCell id="KGvLCn7wM3emNixortyG-21" value="0" style="whiteSpace=wrap;html=1;aspect=fixed;" parent="1" vertex="1">
                    <mxGeometry x="400" y="320" width="40" height="40" as="geometry"/>
                </mxCell>
                <mxCell id="KGvLCn7wM3emNixortyG-22" value="0" style="whiteSpace=wrap;html=1;aspect=fixed;" parent="1" vertex="1">
                    <mxGeometry x="440" y="320" width="40" height="40" as="geometry"/>
                </mxCell>
                <mxCell id="KGvLCn7wM3emNixortyG-23" value="0" style="whiteSpace=wrap;html=1;aspect=fixed;" parent="1" vertex="1">
                    <mxGeometry x="480" y="320" width="40" height="40" as="geometry"/>
                </mxCell>
                <mxCell id="KGvLCn7wM3emNixortyG-24" value="0" style="whiteSpace=wrap;html=1;aspect=fixed;fillColor=#008a00;strokeColor=#005700;fontColor=#ffffff;" parent="1" vertex="1">
                    <mxGeometry x="520" y="320" width="40" height="40" as="geometry"/>
                </mxCell>
                <mxCell id="KGvLCn7wM3emNixortyG-25" value="0" style="whiteSpace=wrap;html=1;aspect=fixed;" parent="1" vertex="1">
                    <mxGeometry x="320" y="360" width="40" height="40" as="geometry"/>
                </mxCell>
                <mxCell id="KGvLCn7wM3emNixortyG-26" value="0" style="whiteSpace=wrap;html=1;aspect=fixed;" parent="1" vertex="1">
                    <mxGeometry x="360" y="360" width="40" height="40" as="geometry"/>
                </mxCell>
                <mxCell id="KGvLCn7wM3emNixortyG-27" value="0" style="whiteSpace=wrap;html=1;aspect=fixed;" parent="1" vertex="1">
                    <mxGeometry x="400" y="360" width="40" height="40" as="geometry"/>
                </mxCell>
                <mxCell id="KGvLCn7wM3emNixortyG-28" value="0" style="whiteSpace=wrap;html=1;aspect=fixed;" parent="1" vertex="1">
                    <mxGeometry x="440" y="360" width="40" height="40" as="geometry"/>
                </mxCell>
                <mxCell id="KGvLCn7wM3emNixortyG-29" value="0" style="whiteSpace=wrap;html=1;aspect=fixed;fillColor=#008a00;strokeColor=#005700;fontColor=#ffffff;" parent="1" vertex="1">
                    <mxGeometry x="480" y="360" width="40" height="40" as="geometry"/>
                </mxCell>
                <mxCell id="KGvLCn7wM3emNixortyG-30" value="1" style="whiteSpace=wrap;html=1;aspect=fixed;fillColor=#1ba1e2;strokeColor=#006EAF;fontColor=#ffffff;" parent="1" vertex="1">
                    <mxGeometry x="520" y="360" width="40" height="40" as="geometry"/>
                </mxCell>
                <mxCell id="KGvLCn7wM3emNixortyG-86" value="0" style="whiteSpace=wrap;html=1;aspect=fixed;" parent="1" vertex="1">
                    <mxGeometry x="600" y="240" width="40" height="40" as="geometry"/>
                </mxCell>
                <mxCell id="KGvLCn7wM3emNixortyG-87" value="0" style="whiteSpace=wrap;html=1;aspect=fixed;" parent="1" vertex="1">
                    <mxGeometry x="640" y="240" width="40" height="40" as="geometry"/>
                </mxCell>
                <mxCell id="KGvLCn7wM3emNixortyG-88" value="0" style="whiteSpace=wrap;html=1;aspect=fixed;" parent="1" vertex="1">
                    <mxGeometry x="680" y="240" width="40" height="40" as="geometry"/>
                </mxCell>
                <mxCell id="KGvLCn7wM3emNixortyG-89" value="0" style="whiteSpace=wrap;html=1;aspect=fixed;" parent="1" vertex="1">
                    <mxGeometry x="720" y="240" width="40" height="40" as="geometry"/>
                </mxCell>
                <mxCell id="KGvLCn7wM3emNixortyG-90" value="0" style="whiteSpace=wrap;html=1;aspect=fixed;" parent="1" vertex="1">
                    <mxGeometry x="760" y="240" width="40" height="40" as="geometry"/>
                </mxCell>
                <mxCell id="KGvLCn7wM3emNixortyG-91" value="0" style="whiteSpace=wrap;html=1;aspect=fixed;" parent="1" vertex="1">
                    <mxGeometry x="800" y="240" width="40" height="40" as="geometry"/>
                </mxCell>
                <mxCell id="KGvLCn7wM3emNixortyG-92" value="&lt;span&gt;0&lt;/span&gt;" style="whiteSpace=wrap;html=1;aspect=fixed;" parent="1" vertex="1">
                    <mxGeometry x="600" y="280" width="40" height="40" as="geometry"/>
                </mxCell>
                <mxCell id="KGvLCn7wM3emNixortyG-93" value="0" style="whiteSpace=wrap;html=1;aspect=fixed;" parent="1" vertex="1">
                    <mxGeometry x="640" y="280" width="40" height="40" as="geometry"/>
                </mxCell>
                <mxCell id="KGvLCn7wM3emNixortyG-94" value="0" style="whiteSpace=wrap;html=1;aspect=fixed;" parent="1" vertex="1">
                    <mxGeometry x="680" y="280" width="40" height="40" as="geometry"/>
                </mxCell>
                <mxCell id="KGvLCn7wM3emNixortyG-95" value="0" style="whiteSpace=wrap;html=1;aspect=fixed;" parent="1" vertex="1">
                    <mxGeometry x="720" y="280" width="40" height="40" as="geometry"/>
                </mxCell>
                <mxCell id="KGvLCn7wM3emNixortyG-96" value="0" style="whiteSpace=wrap;html=1;aspect=fixed;" parent="1" vertex="1">
                    <mxGeometry x="760" y="280" width="40" height="40" as="geometry"/>
                </mxCell>
                <mxCell id="KGvLCn7wM3emNixortyG-97" value="0" style="whiteSpace=wrap;html=1;aspect=fixed;fillColor=#008a00;strokeColor=#005700;fontColor=#ffffff;" parent="1" vertex="1">
                    <mxGeometry x="800" y="280" width="40" height="40" as="geometry"/>
                </mxCell>
                <mxCell id="KGvLCn7wM3emNixortyG-98" value="0" style="whiteSpace=wrap;html=1;aspect=fixed;" parent="1" vertex="1">
                    <mxGeometry x="600" y="320" width="40" height="40" as="geometry"/>
                </mxCell>
                <mxCell id="KGvLCn7wM3emNixortyG-99" value="0" style="whiteSpace=wrap;html=1;aspect=fixed;" parent="1" vertex="1">
                    <mxGeometry x="640" y="320" width="40" height="40" as="geometry"/>
                </mxCell>
                <mxCell id="KGvLCn7wM3emNixortyG-100" value="0" style="whiteSpace=wrap;html=1;aspect=fixed;" parent="1" vertex="1">
                    <mxGeometry x="680" y="320" width="40" height="40" as="geometry"/>
                </mxCell>
                <mxCell id="KGvLCn7wM3emNixortyG-101" value="0" style="whiteSpace=wrap;html=1;aspect=fixed;" parent="1" vertex="1">
                    <mxGeometry x="720" y="320" width="40" height="40" as="geometry"/>
                </mxCell>
                <mxCell id="KGvLCn7wM3emNixortyG-102" value="0" style="whiteSpace=wrap;html=1;aspect=fixed;fillColor=#008a00;strokeColor=#005700;fontColor=#ffffff;" parent="1" vertex="1">
                    <mxGeometry x="760" y="320" width="40" height="40" as="geometry"/>
                </mxCell>
                <mxCell id="KGvLCn7wM3emNixortyG-103" value="0" style="whiteSpace=wrap;html=1;aspect=fixed;fillColor=#1ba1e2;strokeColor=#006EAF;fontColor=#ffffff;" parent="1" vertex="1">
                    <mxGeometry x="800" y="320" width="40" height="40" as="geometry"/>
                </mxCell>
                <mxCell id="KGvLCn7wM3emNixortyG-104" value="0" style="whiteSpace=wrap;html=1;aspect=fixed;" parent="1" vertex="1">
                    <mxGeometry x="600" y="360" width="40" height="40" as="geometry"/>
                </mxCell>
                <mxCell id="KGvLCn7wM3emNixortyG-105" value="0" style="whiteSpace=wrap;html=1;aspect=fixed;" parent="1" vertex="1">
                    <mxGeometry x="640" y="360" width="40" height="40" as="geometry"/>
                </mxCell>
                <mxCell id="KGvLCn7wM3emNixortyG-106" value="0" style="whiteSpace=wrap;html=1;aspect=fixed;" parent="1" vertex="1">
                    <mxGeometry x="680" y="360" width="40" height="40" as="geometry"/>
                </mxCell>
                <mxCell id="KGvLCn7wM3emNixortyG-107" value="0" style="whiteSpace=wrap;html=1;aspect=fixed;fillColor=#008a00;strokeColor=#005700;fontColor=#ffffff;" parent="1" vertex="1">
                    <mxGeometry x="720" y="360" width="40" height="40" as="geometry"/>
                </mxCell>
                <mxCell id="KGvLCn7wM3emNixortyG-108" value="0" style="whiteSpace=wrap;html=1;aspect=fixed;direction=south;fillColor=#1ba1e2;strokeColor=#006EAF;fontColor=#ffffff;" parent="1" vertex="1">
                    <mxGeometry x="760" y="360" width="40" height="40" as="geometry"/>
                </mxCell>
                <mxCell id="KGvLCn7wM3emNixortyG-109" value="0" style="whiteSpace=wrap;html=1;aspect=fixed;fillColor=#1ba1e2;strokeColor=#006EAF;fontColor=#ffffff;" parent="1" vertex="1">
                    <mxGeometry x="800" y="360" width="40" height="40" as="geometry"/>
                </mxCell>
                <mxCell id="KGvLCn7wM3emNixortyG-122" value="0" style="whiteSpace=wrap;html=1;aspect=fixed;" parent="1" vertex="1">
                    <mxGeometry x="880" y="240" width="40" height="40" as="geometry"/>
                </mxCell>
                <mxCell id="KGvLCn7wM3emNixortyG-123" value="0" style="whiteSpace=wrap;html=1;aspect=fixed;" parent="1" vertex="1">
                    <mxGeometry x="920" y="240" width="40" height="40" as="geometry"/>
                </mxCell>
                <mxCell id="KGvLCn7wM3emNixortyG-124" value="0" style="whiteSpace=wrap;html=1;aspect=fixed;" parent="1" vertex="1">
                    <mxGeometry x="960" y="240" width="40" height="40" as="geometry"/>
                </mxCell>
                <mxCell id="KGvLCn7wM3emNixortyG-125" value="0" style="whiteSpace=wrap;html=1;aspect=fixed;" parent="1" vertex="1">
                    <mxGeometry x="1000" y="240" width="40" height="40" as="geometry"/>
                </mxCell>
                <mxCell id="KGvLCn7wM3emNixortyG-126" value="0" style="whiteSpace=wrap;html=1;aspect=fixed;" parent="1" vertex="1">
                    <mxGeometry x="1040" y="240" width="40" height="40" as="geometry"/>
                </mxCell>
                <mxCell id="KGvLCn7wM3emNixortyG-127" value="0" style="whiteSpace=wrap;html=1;aspect=fixed;fillColor=#008a00;strokeColor=#005700;fontColor=#ffffff;" parent="1" vertex="1">
                    <mxGeometry x="1080" y="240" width="40" height="40" as="geometry"/>
                </mxCell>
                <mxCell id="KGvLCn7wM3emNixortyG-128" value="&lt;span&gt;0&lt;/span&gt;" style="whiteSpace=wrap;html=1;aspect=fixed;" parent="1" vertex="1">
                    <mxGeometry x="880" y="280" width="40" height="40" as="geometry"/>
                </mxCell>
                <mxCell id="KGvLCn7wM3emNixortyG-129" value="0" style="whiteSpace=wrap;html=1;aspect=fixed;" parent="1" vertex="1">
                    <mxGeometry x="920" y="280" width="40" height="40" as="geometry"/>
                </mxCell>
                <mxCell id="KGvLCn7wM3emNixortyG-130" value="0" style="whiteSpace=wrap;html=1;aspect=fixed;" parent="1" vertex="1">
                    <mxGeometry x="960" y="280" width="40" height="40" as="geometry"/>
                </mxCell>
                <mxCell id="KGvLCn7wM3emNixortyG-131" value="0" style="whiteSpace=wrap;html=1;aspect=fixed;" parent="1" vertex="1">
                    <mxGeometry x="1000" y="280" width="40" height="40" as="geometry"/>
                </mxCell>
                <mxCell id="KGvLCn7wM3emNixortyG-132" value="0" style="whiteSpace=wrap;html=1;aspect=fixed;fillColor=#008a00;strokeColor=#005700;fontColor=#ffffff;" parent="1" vertex="1">
                    <mxGeometry x="1040" y="280" width="40" height="40" as="geometry"/>
                </mxCell>
                <mxCell id="KGvLCn7wM3emNixortyG-133" value="0" style="whiteSpace=wrap;html=1;aspect=fixed;fillColor=#1ba1e2;strokeColor=#006EAF;fontColor=#ffffff;" parent="1" vertex="1">
                    <mxGeometry x="1080" y="280" width="40" height="40" as="geometry"/>
                </mxCell>
                <mxCell id="KGvLCn7wM3emNixortyG-134" value="0" style="whiteSpace=wrap;html=1;aspect=fixed;" parent="1" vertex="1">
                    <mxGeometry x="880" y="320" width="40" height="40" as="geometry"/>
                </mxCell>
                <mxCell id="KGvLCn7wM3emNixortyG-135" value="0" style="whiteSpace=wrap;html=1;aspect=fixed;" parent="1" vertex="1">
                    <mxGeometry x="920" y="320" width="40" height="40" as="geometry"/>
                </mxCell>
                <mxCell id="KGvLCn7wM3emNixortyG-136" value="0" style="whiteSpace=wrap;html=1;aspect=fixed;" parent="1" vertex="1">
                    <mxGeometry x="960" y="320" width="40" height="40" as="geometry"/>
                </mxCell>
                <mxCell id="KGvLCn7wM3emNixortyG-137" value="0" style="whiteSpace=wrap;html=1;aspect=fixed;fillColor=#008a00;strokeColor=#005700;fontColor=#ffffff;" parent="1" vertex="1">
                    <mxGeometry x="1000" y="320" width="40" height="40" as="geometry"/>
                </mxCell>
                <mxCell id="KGvLCn7wM3emNixortyG-138" value="0" style="whiteSpace=wrap;html=1;aspect=fixed;fillColor=#1ba1e2;strokeColor=#006EAF;fontColor=#ffffff;" parent="1" vertex="1">
                    <mxGeometry x="1040" y="320" width="40" height="40" as="geometry"/>
                </mxCell>
                <mxCell id="KGvLCn7wM3emNixortyG-139" value="0" style="whiteSpace=wrap;html=1;aspect=fixed;fillColor=#1ba1e2;strokeColor=#006EAF;fontColor=#ffffff;" parent="1" vertex="1">
                    <mxGeometry x="1080" y="320" width="40" height="40" as="geometry"/>
                </mxCell>
                <mxCell id="KGvLCn7wM3emNixortyG-140" value="0" style="whiteSpace=wrap;html=1;aspect=fixed;" parent="1" vertex="1">
                    <mxGeometry x="880" y="360" width="40" height="40" as="geometry"/>
                </mxCell>
                <mxCell id="KGvLCn7wM3emNixortyG-141" value="0" style="whiteSpace=wrap;html=1;aspect=fixed;" parent="1" vertex="1">
                    <mxGeometry x="920" y="360" width="40" height="40" as="geometry"/>
                </mxCell>
                <mxCell id="KGvLCn7wM3emNixortyG-142" value="0" style="whiteSpace=wrap;html=1;aspect=fixed;fillColor=#008a00;strokeColor=#005700;fontColor=#ffffff;" parent="1" vertex="1">
                    <mxGeometry x="960" y="360" width="40" height="40" as="geometry"/>
                </mxCell>
                <mxCell id="KGvLCn7wM3emNixortyG-143" value="0" style="whiteSpace=wrap;html=1;aspect=fixed;fillColor=#1ba1e2;strokeColor=#006EAF;fontColor=#ffffff;" parent="1" vertex="1">
                    <mxGeometry x="1000" y="360" width="40" height="40" as="geometry"/>
                </mxCell>
                <mxCell id="KGvLCn7wM3emNixortyG-144" value="0" style="whiteSpace=wrap;html=1;aspect=fixed;fillColor=#1ba1e2;strokeColor=#006EAF;fontColor=#ffffff;" parent="1" vertex="1">
                    <mxGeometry x="1040" y="360" width="40" height="40" as="geometry"/>
                </mxCell>
                <mxCell id="KGvLCn7wM3emNixortyG-145" value="0" style="whiteSpace=wrap;html=1;aspect=fixed;fillColor=#1ba1e2;strokeColor=#006EAF;fontColor=#ffffff;" parent="1" vertex="1">
                    <mxGeometry x="1080" y="360" width="40" height="40" as="geometry"/>
                </mxCell>
                <mxCell id="KGvLCn7wM3emNixortyG-160" value="0" style="whiteSpace=wrap;html=1;aspect=fixed;" parent="1" vertex="1">
                    <mxGeometry x="320" y="160" width="40" height="40" as="geometry"/>
                </mxCell>
                <mxCell id="KGvLCn7wM3emNixortyG-161" value="1" style="whiteSpace=wrap;html=1;aspect=fixed;" parent="1" vertex="1">
                    <mxGeometry x="600" y="160" width="40" height="40" as="geometry"/>
                </mxCell>
                <mxCell id="KGvLCn7wM3emNixortyG-162" value="2" style="whiteSpace=wrap;html=1;aspect=fixed;" parent="1" vertex="1">
                    <mxGeometry x="880" y="160" width="40" height="40" as="geometry"/>
                </mxCell>
                <mxCell id="KGvLCn7wM3emNixortyG-163" value="0" style="whiteSpace=wrap;html=1;aspect=fixed;" parent="1" vertex="1">
                    <mxGeometry x="1160" y="240" width="40" height="40" as="geometry"/>
                </mxCell>
                <mxCell id="KGvLCn7wM3emNixortyG-164" value="0" style="whiteSpace=wrap;html=1;aspect=fixed;" parent="1" vertex="1">
                    <mxGeometry x="1200" y="240" width="40" height="40" as="geometry"/>
                </mxCell>
                <mxCell id="KGvLCn7wM3emNixortyG-165" value="0" style="whiteSpace=wrap;html=1;aspect=fixed;" parent="1" vertex="1">
                    <mxGeometry x="1240" y="240" width="40" height="40" as="geometry"/>
                </mxCell>
                <mxCell id="KGvLCn7wM3emNixortyG-166" value="0" style="whiteSpace=wrap;html=1;aspect=fixed;" parent="1" vertex="1">
                    <mxGeometry x="1280" y="240" width="40" height="40" as="geometry"/>
                </mxCell>
                <mxCell id="KGvLCn7wM3emNixortyG-167" value="0" style="whiteSpace=wrap;html=1;aspect=fixed;fillColor=#008a00;strokeColor=#005700;fontColor=#ffffff;" parent="1" vertex="1">
                    <mxGeometry x="1320" y="240" width="40" height="40" as="geometry"/>
                </mxCell>
                <mxCell id="KGvLCn7wM3emNixortyG-168" value="0" style="whiteSpace=wrap;html=1;aspect=fixed;fillColor=#1ba1e2;strokeColor=#006EAF;fontColor=#ffffff;" parent="1" vertex="1">
                    <mxGeometry x="1360" y="240" width="40" height="40" as="geometry"/>
                </mxCell>
                <mxCell id="KGvLCn7wM3emNixortyG-169" value="&lt;span&gt;0&lt;/span&gt;" style="whiteSpace=wrap;html=1;aspect=fixed;" parent="1" vertex="1">
                    <mxGeometry x="1160" y="280" width="40" height="40" as="geometry"/>
                </mxCell>
                <mxCell id="KGvLCn7wM3emNixortyG-170" value="0" style="whiteSpace=wrap;html=1;aspect=fixed;" parent="1" vertex="1">
                    <mxGeometry x="1200" y="280" width="40" height="40" as="geometry"/>
                </mxCell>
                <mxCell id="KGvLCn7wM3emNixortyG-171" value="0" style="whiteSpace=wrap;html=1;aspect=fixed;" parent="1" vertex="1">
                    <mxGeometry x="1240" y="280" width="40" height="40" as="geometry"/>
                </mxCell>
                <mxCell id="KGvLCn7wM3emNixortyG-172" value="0" style="whiteSpace=wrap;html=1;aspect=fixed;fillColor=#008a00;strokeColor=#005700;fontColor=#ffffff;" parent="1" vertex="1">
                    <mxGeometry x="1280" y="280" width="40" height="40" as="geometry"/>
                </mxCell>
                <mxCell id="KGvLCn7wM3emNixortyG-173" value="0" style="whiteSpace=wrap;html=1;aspect=fixed;fillColor=#1ba1e2;strokeColor=#006EAF;fontColor=#ffffff;" parent="1" vertex="1">
                    <mxGeometry x="1320" y="280" width="40" height="40" as="geometry"/>
                </mxCell>
                <mxCell id="KGvLCn7wM3emNixortyG-174" value="0" style="whiteSpace=wrap;html=1;aspect=fixed;fillColor=#1ba1e2;strokeColor=#006EAF;fontColor=#ffffff;" parent="1" vertex="1">
                    <mxGeometry x="1360" y="280" width="40" height="40" as="geometry"/>
                </mxCell>
                <mxCell id="KGvLCn7wM3emNixortyG-175" value="0" style="whiteSpace=wrap;html=1;aspect=fixed;" parent="1" vertex="1">
                    <mxGeometry x="1160" y="320" width="40" height="40" as="geometry"/>
                </mxCell>
                <mxCell id="KGvLCn7wM3emNixortyG-176" value="0" style="whiteSpace=wrap;html=1;aspect=fixed;" parent="1" vertex="1">
                    <mxGeometry x="1200" y="320" width="40" height="40" as="geometry"/>
                </mxCell>
                <mxCell id="KGvLCn7wM3emNixortyG-177" value="0" style="whiteSpace=wrap;html=1;aspect=fixed;fillColor=#008a00;strokeColor=#005700;fontColor=#ffffff;" parent="1" vertex="1">
                    <mxGeometry x="1240" y="320" width="40" height="40" as="geometry"/>
                </mxCell>
                <mxCell id="KGvLCn7wM3emNixortyG-178" value="0" style="whiteSpace=wrap;html=1;aspect=fixed;fillColor=#1ba1e2;strokeColor=#006EAF;fontColor=#ffffff;" parent="1" vertex="1">
                    <mxGeometry x="1280" y="320" width="40" height="40" as="geometry"/>
                </mxCell>
                <mxCell id="KGvLCn7wM3emNixortyG-179" value="0" style="whiteSpace=wrap;html=1;aspect=fixed;fillColor=#1ba1e2;strokeColor=#006EAF;fontColor=#ffffff;" parent="1" vertex="1">
                    <mxGeometry x="1320" y="320" width="40" height="40" as="geometry"/>
                </mxCell>
                <mxCell id="KGvLCn7wM3emNixortyG-180" value="0" style="whiteSpace=wrap;html=1;aspect=fixed;fillColor=#1ba1e2;strokeColor=#006EAF;fontColor=#ffffff;" parent="1" vertex="1">
                    <mxGeometry x="1360" y="320" width="40" height="40" as="geometry"/>
                </mxCell>
                <mxCell id="KGvLCn7wM3emNixortyG-181" value="0" style="whiteSpace=wrap;html=1;aspect=fixed;" parent="1" vertex="1">
                    <mxGeometry x="1160" y="360" width="40" height="40" as="geometry"/>
                </mxCell>
                <mxCell id="KGvLCn7wM3emNixortyG-182" value="0" style="whiteSpace=wrap;html=1;aspect=fixed;fillColor=#008a00;strokeColor=#005700;fontColor=#ffffff;" parent="1" vertex="1">
                    <mxGeometry x="1200" y="360" width="40" height="40" as="geometry"/>
                </mxCell>
                <mxCell id="KGvLCn7wM3emNixortyG-183" value="0" style="whiteSpace=wrap;html=1;aspect=fixed;fillColor=#1ba1e2;strokeColor=#006EAF;fontColor=#ffffff;" parent="1" vertex="1">
                    <mxGeometry x="1240" y="360" width="40" height="40" as="geometry"/>
                </mxCell>
                <mxCell id="KGvLCn7wM3emNixortyG-184" value="0" style="whiteSpace=wrap;html=1;aspect=fixed;fillColor=#1ba1e2;strokeColor=#006EAF;fontColor=#ffffff;" parent="1" vertex="1">
                    <mxGeometry x="1280" y="360" width="40" height="40" as="geometry"/>
                </mxCell>
                <mxCell id="KGvLCn7wM3emNixortyG-185" value="0" style="whiteSpace=wrap;html=1;aspect=fixed;fillColor=#1ba1e2;strokeColor=#006EAF;fontColor=#ffffff;" parent="1" vertex="1">
                    <mxGeometry x="1320" y="360" width="40" height="40" as="geometry"/>
                </mxCell>
                <mxCell id="KGvLCn7wM3emNixortyG-186" value="1" style="whiteSpace=wrap;html=1;aspect=fixed;fillColor=#1ba1e2;strokeColor=#006EAF;fontColor=#ffffff;" parent="1" vertex="1">
                    <mxGeometry x="1360" y="360" width="40" height="40" as="geometry"/>
                </mxCell>
                <mxCell id="KGvLCn7wM3emNixortyG-199" value="3" style="whiteSpace=wrap;html=1;aspect=fixed;" parent="1" vertex="1">
                    <mxGeometry x="1160" y="160" width="40" height="40" as="geometry"/>
                </mxCell>
                <mxCell id="KGvLCn7wM3emNixortyG-200" value="0" style="whiteSpace=wrap;html=1;aspect=fixed;" parent="1" vertex="1">
                    <mxGeometry x="320" y="600" width="40" height="40" as="geometry"/>
                </mxCell>
                <mxCell id="KGvLCn7wM3emNixortyG-201" value="0" style="whiteSpace=wrap;html=1;aspect=fixed;" parent="1" vertex="1">
                    <mxGeometry x="360" y="600" width="40" height="40" as="geometry"/>
                </mxCell>
                <mxCell id="KGvLCn7wM3emNixortyG-202" value="0" style="whiteSpace=wrap;html=1;aspect=fixed;" parent="1" vertex="1">
                    <mxGeometry x="400" y="600" width="40" height="40" as="geometry"/>
                </mxCell>
                <mxCell id="KGvLCn7wM3emNixortyG-203" value="0" style="whiteSpace=wrap;html=1;aspect=fixed;fillColor=#008a00;strokeColor=#005700;fontColor=#ffffff;" parent="1" vertex="1">
                    <mxGeometry x="440" y="600" width="40" height="40" as="geometry"/>
                </mxCell>
                <mxCell id="KGvLCn7wM3emNixortyG-204" value="0" style="whiteSpace=wrap;html=1;aspect=fixed;fillColor=#1ba1e2;strokeColor=#006EAF;fontColor=#ffffff;" parent="1" vertex="1">
                    <mxGeometry x="480" y="600" width="40" height="40" as="geometry"/>
                </mxCell>
                <mxCell id="KGvLCn7wM3emNixortyG-205" value="0" style="whiteSpace=wrap;html=1;aspect=fixed;fillColor=#1ba1e2;strokeColor=#006EAF;fontColor=#ffffff;" parent="1" vertex="1">
                    <mxGeometry x="520" y="600" width="40" height="40" as="geometry"/>
                </mxCell>
                <mxCell id="KGvLCn7wM3emNixortyG-206" value="&lt;span&gt;0&lt;/span&gt;" style="whiteSpace=wrap;html=1;aspect=fixed;" parent="1" vertex="1">
                    <mxGeometry x="320" y="640" width="40" height="40" as="geometry"/>
                </mxCell>
                <mxCell id="KGvLCn7wM3emNixortyG-207" value="0" style="whiteSpace=wrap;html=1;aspect=fixed;" parent="1" vertex="1">
                    <mxGeometry x="360" y="640" width="40" height="40" as="geometry"/>
                </mxCell>
                <mxCell id="KGvLCn7wM3emNixortyG-208" value="0" style="whiteSpace=wrap;html=1;aspect=fixed;fillColor=#008a00;strokeColor=#005700;fontColor=#ffffff;" parent="1" vertex="1">
                    <mxGeometry x="400" y="640" width="40" height="40" as="geometry"/>
                </mxCell>
                <mxCell id="KGvLCn7wM3emNixortyG-209" value="0" style="whiteSpace=wrap;html=1;aspect=fixed;fillColor=#1ba1e2;strokeColor=#006EAF;fontColor=#ffffff;" parent="1" vertex="1">
                    <mxGeometry x="440" y="640" width="40" height="40" as="geometry"/>
                </mxCell>
                <mxCell id="KGvLCn7wM3emNixortyG-210" value="0" style="whiteSpace=wrap;html=1;aspect=fixed;fillColor=#1ba1e2;strokeColor=#006EAF;fontColor=#ffffff;" parent="1" vertex="1">
                    <mxGeometry x="480" y="640" width="40" height="40" as="geometry"/>
                </mxCell>
                <mxCell id="KGvLCn7wM3emNixortyG-211" value="0" style="whiteSpace=wrap;html=1;aspect=fixed;fillColor=#1ba1e2;strokeColor=#006EAF;fontColor=#ffffff;" parent="1" vertex="1">
                    <mxGeometry x="520" y="640" width="40" height="40" as="geometry"/>
                </mxCell>
                <mxCell id="KGvLCn7wM3emNixortyG-212" value="0" style="whiteSpace=wrap;html=1;aspect=fixed;" parent="1" vertex="1">
                    <mxGeometry x="320" y="680" width="40" height="40" as="geometry"/>
                </mxCell>
                <mxCell id="KGvLCn7wM3emNixortyG-213" value="0" style="whiteSpace=wrap;html=1;aspect=fixed;fillColor=#008a00;strokeColor=#005700;fontColor=#ffffff;" parent="1" vertex="1">
                    <mxGeometry x="360" y="680" width="40" height="40" as="geometry"/>
                </mxCell>
                <mxCell id="KGvLCn7wM3emNixortyG-214" value="0" style="whiteSpace=wrap;html=1;aspect=fixed;fillColor=#1ba1e2;strokeColor=#006EAF;fontColor=#ffffff;" parent="1" vertex="1">
                    <mxGeometry x="400" y="680" width="40" height="40" as="geometry"/>
                </mxCell>
                <mxCell id="KGvLCn7wM3emNixortyG-215" value="0" style="whiteSpace=wrap;html=1;aspect=fixed;fillColor=#1ba1e2;strokeColor=#006EAF;fontColor=#ffffff;" parent="1" vertex="1">
                    <mxGeometry x="440" y="680" width="40" height="40" as="geometry"/>
                </mxCell>
                <mxCell id="KGvLCn7wM3emNixortyG-216" value="0" style="whiteSpace=wrap;html=1;aspect=fixed;fillColor=#1ba1e2;strokeColor=#006EAF;fontColor=#ffffff;" parent="1" vertex="1">
                    <mxGeometry x="480" y="680" width="40" height="40" as="geometry"/>
                </mxCell>
                <mxCell id="KGvLCn7wM3emNixortyG-217" value="1" style="whiteSpace=wrap;html=1;aspect=fixed;fillColor=#1ba1e2;strokeColor=#006EAF;fontColor=#ffffff;" parent="1" vertex="1">
                    <mxGeometry x="520" y="680" width="40" height="40" as="geometry"/>
                </mxCell>
                <mxCell id="KGvLCn7wM3emNixortyG-218" value="0" style="whiteSpace=wrap;html=1;aspect=fixed;fillColor=#008a00;strokeColor=#005700;fontColor=#ffffff;" parent="1" vertex="1">
                    <mxGeometry x="320" y="720" width="40" height="40" as="geometry"/>
                </mxCell>
                <mxCell id="KGvLCn7wM3emNixortyG-219" value="0" style="whiteSpace=wrap;html=1;aspect=fixed;fillColor=#1ba1e2;strokeColor=#006EAF;fontColor=#ffffff;" parent="1" vertex="1">
                    <mxGeometry x="360" y="720" width="40" height="40" as="geometry"/>
                </mxCell>
                <mxCell id="KGvLCn7wM3emNixortyG-220" value="0" style="whiteSpace=wrap;html=1;aspect=fixed;fillColor=#1ba1e2;strokeColor=#006EAF;fontColor=#ffffff;" parent="1" vertex="1">
                    <mxGeometry x="400" y="720" width="40" height="40" as="geometry"/>
                </mxCell>
                <mxCell id="KGvLCn7wM3emNixortyG-221" value="0" style="whiteSpace=wrap;html=1;aspect=fixed;fillColor=#1ba1e2;strokeColor=#006EAF;fontColor=#ffffff;" parent="1" vertex="1">
                    <mxGeometry x="440" y="720" width="40" height="40" as="geometry"/>
                </mxCell>
                <mxCell id="KGvLCn7wM3emNixortyG-222" value="1" style="whiteSpace=wrap;html=1;aspect=fixed;fillColor=#1ba1e2;strokeColor=#006EAF;fontColor=#ffffff;" parent="1" vertex="1">
                    <mxGeometry x="480" y="720" width="40" height="40" as="geometry"/>
                </mxCell>
                <mxCell id="KGvLCn7wM3emNixortyG-223" value="1" style="whiteSpace=wrap;html=1;aspect=fixed;fillColor=#1ba1e2;strokeColor=#006EAF;fontColor=#ffffff;" parent="1" vertex="1">
                    <mxGeometry x="520" y="720" width="40" height="40" as="geometry"/>
                </mxCell>
                <mxCell id="KGvLCn7wM3emNixortyG-236" value="4" style="whiteSpace=wrap;html=1;aspect=fixed;" parent="1" vertex="1">
                    <mxGeometry x="320" y="520" width="40" height="40" as="geometry"/>
                </mxCell>
                <mxCell id="KGvLCn7wM3emNixortyG-348" value="0" style="whiteSpace=wrap;html=1;aspect=fixed;" parent="1" vertex="1">
                    <mxGeometry x="600" y="600" width="40" height="40" as="geometry"/>
                </mxCell>
                <mxCell id="KGvLCn7wM3emNixortyG-349" value="0" style="whiteSpace=wrap;html=1;aspect=fixed;" parent="1" vertex="1">
                    <mxGeometry x="640" y="600" width="40" height="40" as="geometry"/>
                </mxCell>
                <mxCell id="KGvLCn7wM3emNixortyG-350" value="0" style="whiteSpace=wrap;html=1;aspect=fixed;fillColor=#008a00;strokeColor=#005700;fontColor=#ffffff;" parent="1" vertex="1">
                    <mxGeometry x="680" y="600" width="40" height="40" as="geometry"/>
                </mxCell>
                <mxCell id="KGvLCn7wM3emNixortyG-351" value="0" style="whiteSpace=wrap;html=1;aspect=fixed;fillColor=#1ba1e2;strokeColor=#006EAF;fontColor=#ffffff;" parent="1" vertex="1">
                    <mxGeometry x="720" y="600" width="40" height="40" as="geometry"/>
                </mxCell>
                <mxCell id="KGvLCn7wM3emNixortyG-352" value="0" style="whiteSpace=wrap;html=1;aspect=fixed;fillColor=#1ba1e2;strokeColor=#006EAF;fontColor=#ffffff;" parent="1" vertex="1">
                    <mxGeometry x="760" y="600" width="40" height="40" as="geometry"/>
                </mxCell>
                <mxCell id="KGvLCn7wM3emNixortyG-353" value="0" style="whiteSpace=wrap;html=1;aspect=fixed;fillColor=#1ba1e2;strokeColor=#006EAF;fontColor=#ffffff;" parent="1" vertex="1">
                    <mxGeometry x="800" y="600" width="40" height="40" as="geometry"/>
                </mxCell>
                <mxCell id="KGvLCn7wM3emNixortyG-354" value="&lt;span&gt;0&lt;/span&gt;" style="whiteSpace=wrap;html=1;aspect=fixed;" parent="1" vertex="1">
                    <mxGeometry x="600" y="640" width="40" height="40" as="geometry"/>
                </mxCell>
                <mxCell id="KGvLCn7wM3emNixortyG-355" value="0" style="whiteSpace=wrap;html=1;aspect=fixed;fillColor=#008a00;strokeColor=#005700;fontColor=#ffffff;" parent="1" vertex="1">
                    <mxGeometry x="640" y="640" width="40" height="40" as="geometry"/>
                </mxCell>
                <mxCell id="KGvLCn7wM3emNixortyG-356" value="0" style="whiteSpace=wrap;html=1;aspect=fixed;fillColor=#1ba1e2;strokeColor=#006EAF;fontColor=#ffffff;" parent="1" vertex="1">
                    <mxGeometry x="680" y="640" width="40" height="40" as="geometry"/>
                </mxCell>
                <mxCell id="KGvLCn7wM3emNixortyG-357" value="0" style="whiteSpace=wrap;html=1;aspect=fixed;fillColor=#1ba1e2;strokeColor=#006EAF;fontColor=#ffffff;" parent="1" vertex="1">
                    <mxGeometry x="720" y="640" width="40" height="40" as="geometry"/>
                </mxCell>
                <mxCell id="KGvLCn7wM3emNixortyG-358" value="0" style="whiteSpace=wrap;html=1;aspect=fixed;fillColor=#1ba1e2;strokeColor=#006EAF;fontColor=#ffffff;" parent="1" vertex="1">
                    <mxGeometry x="760" y="640" width="40" height="40" as="geometry"/>
                </mxCell>
                <mxCell id="KGvLCn7wM3emNixortyG-359" value="0" style="whiteSpace=wrap;html=1;aspect=fixed;fillColor=#1ba1e2;strokeColor=#006EAF;fontColor=#ffffff;" parent="1" vertex="1">
                    <mxGeometry x="800" y="640" width="40" height="40" as="geometry"/>
                </mxCell>
                <mxCell id="KGvLCn7wM3emNixortyG-360" value="0" style="whiteSpace=wrap;html=1;aspect=fixed;fillColor=#008a00;strokeColor=#005700;fontColor=#ffffff;" parent="1" vertex="1">
                    <mxGeometry x="600" y="680" width="40" height="40" as="geometry"/>
                </mxCell>
                <mxCell id="KGvLCn7wM3emNixortyG-361" value="0" style="whiteSpace=wrap;html=1;aspect=fixed;fillColor=#1ba1e2;strokeColor=#006EAF;fontColor=#ffffff;" parent="1" vertex="1">
                    <mxGeometry x="640" y="680" width="40" height="40" as="geometry"/>
                </mxCell>
                <mxCell id="KGvLCn7wM3emNixortyG-362" value="0" style="whiteSpace=wrap;html=1;aspect=fixed;fillColor=#1ba1e2;strokeColor=#006EAF;fontColor=#ffffff;" parent="1" vertex="1">
                    <mxGeometry x="680" y="680" width="40" height="40" as="geometry"/>
                </mxCell>
                <mxCell id="KGvLCn7wM3emNixortyG-363" value="0" style="whiteSpace=wrap;html=1;aspect=fixed;fillColor=#1ba1e2;strokeColor=#006EAF;fontColor=#ffffff;" parent="1" vertex="1">
                    <mxGeometry x="720" y="680" width="40" height="40" as="geometry"/>
                </mxCell>
                <mxCell id="KGvLCn7wM3emNixortyG-364" value="0" style="whiteSpace=wrap;html=1;aspect=fixed;fillColor=#1ba1e2;strokeColor=#006EAF;fontColor=#ffffff;" parent="1" vertex="1">
                    <mxGeometry x="760" y="680" width="40" height="40" as="geometry"/>
                </mxCell>
                <mxCell id="KGvLCn7wM3emNixortyG-365" value="1" style="whiteSpace=wrap;html=1;aspect=fixed;fillColor=#1ba1e2;strokeColor=#006EAF;fontColor=#ffffff;" parent="1" vertex="1">
                    <mxGeometry x="800" y="680" width="40" height="40" as="geometry"/>
                </mxCell>
                <mxCell id="KGvLCn7wM3emNixortyG-366" value="0" style="whiteSpace=wrap;html=1;aspect=fixed;fillColor=#1ba1e2;strokeColor=#006EAF;fontColor=#ffffff;" parent="1" vertex="1">
                    <mxGeometry x="600" y="720" width="40" height="40" as="geometry"/>
                </mxCell>
                <mxCell id="KGvLCn7wM3emNixortyG-367" value="0" style="whiteSpace=wrap;html=1;aspect=fixed;fillColor=#1ba1e2;strokeColor=#006EAF;fontColor=#ffffff;" parent="1" vertex="1">
                    <mxGeometry x="640" y="720" width="40" height="40" as="geometry"/>
                </mxCell>
                <mxCell id="KGvLCn7wM3emNixortyG-368" value="0" style="whiteSpace=wrap;html=1;aspect=fixed;fillColor=#1ba1e2;strokeColor=#006EAF;fontColor=#ffffff;" parent="1" vertex="1">
                    <mxGeometry x="680" y="720" width="40" height="40" as="geometry"/>
                </mxCell>
                <mxCell id="KGvLCn7wM3emNixortyG-369" value="0" style="whiteSpace=wrap;html=1;aspect=fixed;fillColor=#1ba1e2;strokeColor=#006EAF;fontColor=#ffffff;" parent="1" vertex="1">
                    <mxGeometry x="720" y="720" width="40" height="40" as="geometry"/>
                </mxCell>
                <mxCell id="KGvLCn7wM3emNixortyG-370" value="1" style="whiteSpace=wrap;html=1;aspect=fixed;fillColor=#1ba1e2;strokeColor=#006EAF;fontColor=#ffffff;" parent="1" vertex="1">
                    <mxGeometry x="760" y="720" width="40" height="40" as="geometry"/>
                </mxCell>
                <mxCell id="KGvLCn7wM3emNixortyG-371" value="1" style="whiteSpace=wrap;html=1;aspect=fixed;fillColor=#1ba1e2;strokeColor=#006EAF;fontColor=#ffffff;" parent="1" vertex="1">
                    <mxGeometry x="800" y="720" width="40" height="40" as="geometry"/>
                </mxCell>
                <mxCell id="KGvLCn7wM3emNixortyG-372" value="5" style="whiteSpace=wrap;html=1;aspect=fixed;" parent="1" vertex="1">
                    <mxGeometry x="600" y="520" width="40" height="40" as="geometry"/>
                </mxCell>
                <mxCell id="KGvLCn7wM3emNixortyG-373" value="0" style="whiteSpace=wrap;html=1;aspect=fixed;" parent="1" vertex="1">
                    <mxGeometry x="880" y="600" width="40" height="40" as="geometry"/>
                </mxCell>
                <mxCell id="KGvLCn7wM3emNixortyG-374" value="0" style="whiteSpace=wrap;html=1;aspect=fixed;fillColor=#008a00;strokeColor=#005700;fontColor=#ffffff;" parent="1" vertex="1">
                    <mxGeometry x="920" y="600" width="40" height="40" as="geometry"/>
                </mxCell>
                <mxCell id="KGvLCn7wM3emNixortyG-375" value="0" style="whiteSpace=wrap;html=1;aspect=fixed;fillColor=#1ba1e2;strokeColor=#006EAF;fontColor=#ffffff;" parent="1" vertex="1">
                    <mxGeometry x="960" y="600" width="40" height="40" as="geometry"/>
                </mxCell>
                <mxCell id="KGvLCn7wM3emNixortyG-376" value="0" style="whiteSpace=wrap;html=1;aspect=fixed;fillColor=#1ba1e2;strokeColor=#006EAF;fontColor=#ffffff;" parent="1" vertex="1">
                    <mxGeometry x="1000" y="600" width="40" height="40" as="geometry"/>
                </mxCell>
                <mxCell id="KGvLCn7wM3emNixortyG-377" value="0" style="whiteSpace=wrap;html=1;aspect=fixed;fillColor=#1ba1e2;strokeColor=#006EAF;fontColor=#ffffff;" parent="1" vertex="1">
                    <mxGeometry x="1040" y="600" width="40" height="40" as="geometry"/>
                </mxCell>
                <mxCell id="KGvLCn7wM3emNixortyG-378" value="0" style="whiteSpace=wrap;html=1;aspect=fixed;fillColor=#1ba1e2;strokeColor=#006EAF;fontColor=#ffffff;" parent="1" vertex="1">
                    <mxGeometry x="1080" y="600" width="40" height="40" as="geometry"/>
                </mxCell>
                <mxCell id="KGvLCn7wM3emNixortyG-379" value="&lt;span&gt;0&lt;/span&gt;" style="whiteSpace=wrap;html=1;aspect=fixed;fillColor=#008a00;strokeColor=#005700;fontColor=#ffffff;" parent="1" vertex="1">
                    <mxGeometry x="880" y="640" width="40" height="40" as="geometry"/>
                </mxCell>
                <mxCell id="KGvLCn7wM3emNixortyG-380" value="0" style="whiteSpace=wrap;html=1;aspect=fixed;fillColor=#1ba1e2;strokeColor=#006EAF;fontColor=#ffffff;" parent="1" vertex="1">
                    <mxGeometry x="920" y="640" width="40" height="40" as="geometry"/>
                </mxCell>
                <mxCell id="KGvLCn7wM3emNixortyG-381" value="0" style="whiteSpace=wrap;html=1;aspect=fixed;fillColor=#1ba1e2;strokeColor=#006EAF;fontColor=#ffffff;" parent="1" vertex="1">
                    <mxGeometry x="960" y="640" width="40" height="40" as="geometry"/>
                </mxCell>
                <mxCell id="KGvLCn7wM3emNixortyG-382" value="0" style="whiteSpace=wrap;html=1;aspect=fixed;fillColor=#1ba1e2;strokeColor=#006EAF;fontColor=#ffffff;" parent="1" vertex="1">
                    <mxGeometry x="1000" y="640" width="40" height="40" as="geometry"/>
                </mxCell>
                <mxCell id="KGvLCn7wM3emNixortyG-383" value="0" style="whiteSpace=wrap;html=1;aspect=fixed;fillColor=#1ba1e2;strokeColor=#006EAF;fontColor=#ffffff;" parent="1" vertex="1">
                    <mxGeometry x="1040" y="640" width="40" height="40" as="geometry"/>
                </mxCell>
                <mxCell id="KGvLCn7wM3emNixortyG-384" value="0" style="whiteSpace=wrap;html=1;aspect=fixed;fillColor=#1ba1e2;strokeColor=#006EAF;fontColor=#ffffff;" parent="1" vertex="1">
                    <mxGeometry x="1080" y="640" width="40" height="40" as="geometry"/>
                </mxCell>
                <mxCell id="KGvLCn7wM3emNixortyG-385" value="0" style="whiteSpace=wrap;html=1;aspect=fixed;fillColor=#1ba1e2;strokeColor=#006EAF;fontColor=#ffffff;" parent="1" vertex="1">
                    <mxGeometry x="880" y="680" width="40" height="40" as="geometry"/>
                </mxCell>
                <mxCell id="KGvLCn7wM3emNixortyG-386" value="0" style="whiteSpace=wrap;html=1;aspect=fixed;fillColor=#1ba1e2;strokeColor=#006EAF;fontColor=#ffffff;" parent="1" vertex="1">
                    <mxGeometry x="920" y="680" width="40" height="40" as="geometry"/>
                </mxCell>
                <mxCell id="KGvLCn7wM3emNixortyG-387" value="0" style="whiteSpace=wrap;html=1;aspect=fixed;fillColor=#1ba1e2;strokeColor=#006EAF;fontColor=#ffffff;" parent="1" vertex="1">
                    <mxGeometry x="960" y="680" width="40" height="40" as="geometry"/>
                </mxCell>
                <mxCell id="KGvLCn7wM3emNixortyG-388" value="0" style="whiteSpace=wrap;html=1;aspect=fixed;fillColor=#1ba1e2;strokeColor=#006EAF;fontColor=#ffffff;" parent="1" vertex="1">
                    <mxGeometry x="1000" y="680" width="40" height="40" as="geometry"/>
                </mxCell>
                <mxCell id="KGvLCn7wM3emNixortyG-389" value="0" style="whiteSpace=wrap;html=1;aspect=fixed;fillColor=#1ba1e2;strokeColor=#006EAF;fontColor=#ffffff;" parent="1" vertex="1">
                    <mxGeometry x="1040" y="680" width="40" height="40" as="geometry"/>
                </mxCell>
                <mxCell id="KGvLCn7wM3emNixortyG-390" value="1" style="whiteSpace=wrap;html=1;aspect=fixed;fillColor=#1ba1e2;strokeColor=#006EAF;fontColor=#ffffff;" parent="1" vertex="1">
                    <mxGeometry x="1080" y="680" width="40" height="40" as="geometry"/>
                </mxCell>
                <mxCell id="KGvLCn7wM3emNixortyG-391" value="0" style="whiteSpace=wrap;html=1;aspect=fixed;fillColor=#1ba1e2;strokeColor=#006EAF;fontColor=#ffffff;" parent="1" vertex="1">
                    <mxGeometry x="880" y="720" width="40" height="40" as="geometry"/>
                </mxCell>
                <mxCell id="KGvLCn7wM3emNixortyG-392" value="0" style="whiteSpace=wrap;html=1;aspect=fixed;fillColor=#1ba1e2;strokeColor=#006EAF;fontColor=#ffffff;" parent="1" vertex="1">
                    <mxGeometry x="920" y="720" width="40" height="40" as="geometry"/>
                </mxCell>
                <mxCell id="KGvLCn7wM3emNixortyG-393" value="0" style="whiteSpace=wrap;html=1;aspect=fixed;fillColor=#1ba1e2;strokeColor=#006EAF;fontColor=#ffffff;" parent="1" vertex="1">
                    <mxGeometry x="960" y="720" width="40" height="40" as="geometry"/>
                </mxCell>
                <mxCell id="KGvLCn7wM3emNixortyG-394" value="0" style="whiteSpace=wrap;html=1;aspect=fixed;fillColor=#1ba1e2;strokeColor=#006EAF;fontColor=#ffffff;" parent="1" vertex="1">
                    <mxGeometry x="1000" y="720" width="40" height="40" as="geometry"/>
                </mxCell>
                <mxCell id="KGvLCn7wM3emNixortyG-395" value="1" style="whiteSpace=wrap;html=1;aspect=fixed;fillColor=#1ba1e2;strokeColor=#006EAF;fontColor=#ffffff;" parent="1" vertex="1">
                    <mxGeometry x="1040" y="720" width="40" height="40" as="geometry"/>
                </mxCell>
                <mxCell id="KGvLCn7wM3emNixortyG-396" value="1" style="whiteSpace=wrap;html=1;aspect=fixed;fillColor=#1ba1e2;strokeColor=#006EAF;fontColor=#ffffff;" parent="1" vertex="1">
                    <mxGeometry x="1080" y="720" width="40" height="40" as="geometry"/>
                </mxCell>
                <mxCell id="KGvLCn7wM3emNixortyG-397" value="6" style="whiteSpace=wrap;html=1;aspect=fixed;" parent="1" vertex="1">
                    <mxGeometry x="890" y="520" width="30" height="30" as="geometry"/>
                </mxCell>
                <mxCell id="KGvLCn7wM3emNixortyG-398" value="0" style="whiteSpace=wrap;html=1;aspect=fixed;fillColor=#008a00;strokeColor=#005700;fontColor=#ffffff;" parent="1" vertex="1">
                    <mxGeometry x="1160" y="600" width="40" height="40" as="geometry"/>
                </mxCell>
                <mxCell id="KGvLCn7wM3emNixortyG-399" value="0" style="whiteSpace=wrap;html=1;aspect=fixed;fillColor=#1ba1e2;strokeColor=#006EAF;fontColor=#ffffff;" parent="1" vertex="1">
                    <mxGeometry x="1200" y="600" width="40" height="40" as="geometry"/>
                </mxCell>
                <mxCell id="KGvLCn7wM3emNixortyG-400" value="0" style="whiteSpace=wrap;html=1;aspect=fixed;fillColor=#1ba1e2;strokeColor=#006EAF;fontColor=#ffffff;" parent="1" vertex="1">
                    <mxGeometry x="1240" y="600" width="40" height="40" as="geometry"/>
                </mxCell>
                <mxCell id="KGvLCn7wM3emNixortyG-401" value="0" style="whiteSpace=wrap;html=1;aspect=fixed;fillColor=#1ba1e2;strokeColor=#006EAF;fontColor=#ffffff;" parent="1" vertex="1">
                    <mxGeometry x="1280" y="600" width="40" height="40" as="geometry"/>
                </mxCell>
                <mxCell id="KGvLCn7wM3emNixortyG-402" value="0" style="whiteSpace=wrap;html=1;aspect=fixed;fillColor=#1ba1e2;strokeColor=#006EAF;fontColor=#ffffff;" parent="1" vertex="1">
                    <mxGeometry x="1320" y="600" width="40" height="40" as="geometry"/>
                </mxCell>
                <mxCell id="KGvLCn7wM3emNixortyG-403" value="0" style="whiteSpace=wrap;html=1;aspect=fixed;fillColor=#1ba1e2;strokeColor=#006EAF;fontColor=#ffffff;" parent="1" vertex="1">
                    <mxGeometry x="1360" y="600" width="40" height="40" as="geometry"/>
                </mxCell>
                <mxCell id="KGvLCn7wM3emNixortyG-404" value="&lt;span&gt;0&lt;/span&gt;" style="whiteSpace=wrap;html=1;aspect=fixed;fillColor=#1ba1e2;strokeColor=#006EAF;fontColor=#ffffff;" parent="1" vertex="1">
                    <mxGeometry x="1160" y="640" width="40" height="40" as="geometry"/>
                </mxCell>
                <mxCell id="KGvLCn7wM3emNixortyG-405" value="0" style="whiteSpace=wrap;html=1;aspect=fixed;fillColor=#1ba1e2;strokeColor=#006EAF;fontColor=#ffffff;" parent="1" vertex="1">
                    <mxGeometry x="1200" y="640" width="40" height="40" as="geometry"/>
                </mxCell>
                <mxCell id="KGvLCn7wM3emNixortyG-406" value="0" style="whiteSpace=wrap;html=1;aspect=fixed;fillColor=#1ba1e2;strokeColor=#006EAF;fontColor=#ffffff;" parent="1" vertex="1">
                    <mxGeometry x="1240" y="640" width="40" height="40" as="geometry"/>
                </mxCell>
                <mxCell id="KGvLCn7wM3emNixortyG-407" value="0" style="whiteSpace=wrap;html=1;aspect=fixed;fillColor=#1ba1e2;strokeColor=#006EAF;fontColor=#ffffff;" parent="1" vertex="1">
                    <mxGeometry x="1280" y="640" width="40" height="40" as="geometry"/>
                </mxCell>
                <mxCell id="KGvLCn7wM3emNixortyG-408" value="0" style="whiteSpace=wrap;html=1;aspect=fixed;fillColor=#1ba1e2;strokeColor=#006EAF;fontColor=#ffffff;" parent="1" vertex="1">
                    <mxGeometry x="1320" y="640" width="40" height="40" as="geometry"/>
                </mxCell>
                <mxCell id="KGvLCn7wM3emNixortyG-409" value="0" style="whiteSpace=wrap;html=1;aspect=fixed;fillColor=#1ba1e2;strokeColor=#006EAF;fontColor=#ffffff;" parent="1" vertex="1">
                    <mxGeometry x="1360" y="640" width="40" height="40" as="geometry"/>
                </mxCell>
                <mxCell id="KGvLCn7wM3emNixortyG-410" value="0" style="whiteSpace=wrap;html=1;aspect=fixed;fillColor=#1ba1e2;strokeColor=#006EAF;fontColor=#ffffff;" parent="1" vertex="1">
                    <mxGeometry x="1160" y="680" width="40" height="40" as="geometry"/>
                </mxCell>
                <mxCell id="KGvLCn7wM3emNixortyG-411" value="0" style="whiteSpace=wrap;html=1;aspect=fixed;fillColor=#1ba1e2;strokeColor=#006EAF;fontColor=#ffffff;" parent="1" vertex="1">
                    <mxGeometry x="1200" y="680" width="40" height="40" as="geometry"/>
                </mxCell>
                <mxCell id="KGvLCn7wM3emNixortyG-412" value="0" style="whiteSpace=wrap;html=1;aspect=fixed;fillColor=#1ba1e2;strokeColor=#006EAF;fontColor=#ffffff;" parent="1" vertex="1">
                    <mxGeometry x="1240" y="680" width="40" height="40" as="geometry"/>
                </mxCell>
                <mxCell id="KGvLCn7wM3emNixortyG-413" value="0" style="whiteSpace=wrap;html=1;aspect=fixed;fillColor=#1ba1e2;strokeColor=#006EAF;fontColor=#ffffff;" parent="1" vertex="1">
                    <mxGeometry x="1280" y="680" width="40" height="40" as="geometry"/>
                </mxCell>
                <mxCell id="KGvLCn7wM3emNixortyG-414" value="0" style="whiteSpace=wrap;html=1;aspect=fixed;fillColor=#1ba1e2;strokeColor=#006EAF;fontColor=#ffffff;" parent="1" vertex="1">
                    <mxGeometry x="1320" y="680" width="40" height="40" as="geometry"/>
                </mxCell>
                <mxCell id="KGvLCn7wM3emNixortyG-415" value="1" style="whiteSpace=wrap;html=1;aspect=fixed;fillColor=#1ba1e2;strokeColor=#006EAF;fontColor=#ffffff;" parent="1" vertex="1">
                    <mxGeometry x="1360" y="680" width="40" height="40" as="geometry"/>
                </mxCell>
                <mxCell id="KGvLCn7wM3emNixortyG-416" value="0" style="whiteSpace=wrap;html=1;aspect=fixed;fillColor=#1ba1e2;strokeColor=#006EAF;fontColor=#ffffff;" parent="1" vertex="1">
                    <mxGeometry x="1160" y="720" width="40" height="40" as="geometry"/>
                </mxCell>
                <mxCell id="KGvLCn7wM3emNixortyG-417" value="0" style="whiteSpace=wrap;html=1;aspect=fixed;fillColor=#1ba1e2;strokeColor=#006EAF;fontColor=#ffffff;" parent="1" vertex="1">
                    <mxGeometry x="1200" y="720" width="40" height="40" as="geometry"/>
                </mxCell>
                <mxCell id="KGvLCn7wM3emNixortyG-418" value="0" style="whiteSpace=wrap;html=1;aspect=fixed;fillColor=#1ba1e2;strokeColor=#006EAF;fontColor=#ffffff;" parent="1" vertex="1">
                    <mxGeometry x="1240" y="720" width="40" height="40" as="geometry"/>
                </mxCell>
                <mxCell id="KGvLCn7wM3emNixortyG-419" value="0" style="whiteSpace=wrap;html=1;aspect=fixed;fillColor=#1ba1e2;strokeColor=#006EAF;fontColor=#ffffff;" parent="1" vertex="1">
                    <mxGeometry x="1280" y="720" width="40" height="40" as="geometry"/>
                </mxCell>
                <mxCell id="KGvLCn7wM3emNixortyG-420" value="1" style="whiteSpace=wrap;html=1;aspect=fixed;fillColor=#1ba1e2;strokeColor=#006EAF;fontColor=#ffffff;" parent="1" vertex="1">
                    <mxGeometry x="1320" y="720" width="40" height="40" as="geometry"/>
                </mxCell>
                <mxCell id="KGvLCn7wM3emNixortyG-421" value="1" style="whiteSpace=wrap;html=1;aspect=fixed;fillColor=#1ba1e2;strokeColor=#006EAF;fontColor=#ffffff;" parent="1" vertex="1">
                    <mxGeometry x="1360" y="720" width="40" height="40" as="geometry"/>
                </mxCell>
                <mxCell id="KGvLCn7wM3emNixortyG-422" value="7" style="whiteSpace=wrap;html=1;aspect=fixed;" parent="1" vertex="1">
                    <mxGeometry x="1160" y="520" width="40" height="40" as="geometry"/>
                </mxCell>
                <mxCell id="KGvLCn7wM3emNixortyG-423" value="0" style="whiteSpace=wrap;html=1;aspect=fixed;fillColor=#1ba1e2;strokeColor=#006EAF;fontColor=#ffffff;" parent="1" vertex="1">
                    <mxGeometry x="320" y="880" width="40" height="40" as="geometry"/>
                </mxCell>
                <mxCell id="KGvLCn7wM3emNixortyG-424" value="0" style="whiteSpace=wrap;html=1;aspect=fixed;fillColor=#1ba1e2;strokeColor=#006EAF;fontColor=#ffffff;" parent="1" vertex="1">
                    <mxGeometry x="360" y="880" width="40" height="40" as="geometry"/>
                </mxCell>
                <mxCell id="KGvLCn7wM3emNixortyG-425" value="0" style="whiteSpace=wrap;html=1;aspect=fixed;fillColor=#1ba1e2;strokeColor=#006EAF;fontColor=#ffffff;" parent="1" vertex="1">
                    <mxGeometry x="400" y="880" width="40" height="40" as="geometry"/>
                </mxCell>
                <mxCell id="KGvLCn7wM3emNixortyG-426" value="0" style="whiteSpace=wrap;html=1;aspect=fixed;fillColor=#1ba1e2;strokeColor=#006EAF;fontColor=#ffffff;" parent="1" vertex="1">
                    <mxGeometry x="440" y="880" width="40" height="40" as="geometry"/>
                </mxCell>
                <mxCell id="KGvLCn7wM3emNixortyG-427" value="0" style="whiteSpace=wrap;html=1;aspect=fixed;fillColor=#1ba1e2;strokeColor=#006EAF;fontColor=#ffffff;" parent="1" vertex="1">
                    <mxGeometry x="480" y="880" width="40" height="40" as="geometry"/>
                </mxCell>
                <mxCell id="KGvLCn7wM3emNixortyG-428" value="0" style="whiteSpace=wrap;html=1;aspect=fixed;fillColor=#1ba1e2;strokeColor=#006EAF;fontColor=#ffffff;" parent="1" vertex="1">
                    <mxGeometry x="520" y="880" width="40" height="40" as="geometry"/>
                </mxCell>
                <mxCell id="KGvLCn7wM3emNixortyG-429" value="&lt;span&gt;0&lt;/span&gt;" style="whiteSpace=wrap;html=1;aspect=fixed;fillColor=#1ba1e2;strokeColor=#006EAF;fontColor=#ffffff;" parent="1" vertex="1">
                    <mxGeometry x="320" y="920" width="40" height="40" as="geometry"/>
                </mxCell>
                <mxCell id="KGvLCn7wM3emNixortyG-430" value="0" style="whiteSpace=wrap;html=1;aspect=fixed;fillColor=#1ba1e2;strokeColor=#006EAF;fontColor=#ffffff;" parent="1" vertex="1">
                    <mxGeometry x="360" y="920" width="40" height="40" as="geometry"/>
                </mxCell>
                <mxCell id="KGvLCn7wM3emNixortyG-431" value="0" style="whiteSpace=wrap;html=1;aspect=fixed;fillColor=#1ba1e2;strokeColor=#006EAF;fontColor=#ffffff;" parent="1" vertex="1">
                    <mxGeometry x="400" y="920" width="40" height="40" as="geometry"/>
                </mxCell>
                <mxCell id="KGvLCn7wM3emNixortyG-432" value="0" style="whiteSpace=wrap;html=1;aspect=fixed;fillColor=#1ba1e2;strokeColor=#006EAF;fontColor=#ffffff;" parent="1" vertex="1">
                    <mxGeometry x="440" y="920" width="40" height="40" as="geometry"/>
                </mxCell>
                <mxCell id="KGvLCn7wM3emNixortyG-433" value="0" style="whiteSpace=wrap;html=1;aspect=fixed;fillColor=#1ba1e2;strokeColor=#006EAF;fontColor=#ffffff;" parent="1" vertex="1">
                    <mxGeometry x="480" y="920" width="40" height="40" as="geometry"/>
                </mxCell>
                <mxCell id="KGvLCn7wM3emNixortyG-434" value="0" style="whiteSpace=wrap;html=1;aspect=fixed;fillColor=#1ba1e2;strokeColor=#006EAF;fontColor=#ffffff;" parent="1" vertex="1">
                    <mxGeometry x="520" y="920" width="40" height="40" as="geometry"/>
                </mxCell>
                <mxCell id="KGvLCn7wM3emNixortyG-435" value="0" style="whiteSpace=wrap;html=1;aspect=fixed;fillColor=#1ba1e2;strokeColor=#006EAF;fontColor=#ffffff;" parent="1" vertex="1">
                    <mxGeometry x="320" y="960" width="40" height="40" as="geometry"/>
                </mxCell>
                <mxCell id="KGvLCn7wM3emNixortyG-436" value="0" style="whiteSpace=wrap;html=1;aspect=fixed;fillColor=#1ba1e2;strokeColor=#006EAF;fontColor=#ffffff;" parent="1" vertex="1">
                    <mxGeometry x="360" y="960" width="40" height="40" as="geometry"/>
                </mxCell>
                <mxCell id="KGvLCn7wM3emNixortyG-437" value="0" style="whiteSpace=wrap;html=1;aspect=fixed;fillColor=#1ba1e2;strokeColor=#006EAF;fontColor=#ffffff;" parent="1" vertex="1">
                    <mxGeometry x="400" y="960" width="40" height="40" as="geometry"/>
                </mxCell>
                <mxCell id="KGvLCn7wM3emNixortyG-438" value="0" style="whiteSpace=wrap;html=1;aspect=fixed;fillColor=#1ba1e2;strokeColor=#006EAF;fontColor=#ffffff;" parent="1" vertex="1">
                    <mxGeometry x="440" y="960" width="40" height="40" as="geometry"/>
                </mxCell>
                <mxCell id="KGvLCn7wM3emNixortyG-439" value="0" style="whiteSpace=wrap;html=1;aspect=fixed;fillColor=#1ba1e2;strokeColor=#006EAF;fontColor=#ffffff;" parent="1" vertex="1">
                    <mxGeometry x="480" y="960" width="40" height="40" as="geometry"/>
                </mxCell>
                <mxCell id="KGvLCn7wM3emNixortyG-440" value="1" style="whiteSpace=wrap;html=1;aspect=fixed;fillColor=#1ba1e2;strokeColor=#006EAF;fontColor=#ffffff;" parent="1" vertex="1">
                    <mxGeometry x="520" y="960" width="40" height="40" as="geometry"/>
                </mxCell>
                <mxCell id="KGvLCn7wM3emNixortyG-441" value="0" style="whiteSpace=wrap;html=1;aspect=fixed;fillColor=#1ba1e2;strokeColor=#006EAF;fontColor=#ffffff;" parent="1" vertex="1">
                    <mxGeometry x="320" y="1000" width="40" height="40" as="geometry"/>
                </mxCell>
                <mxCell id="KGvLCn7wM3emNixortyG-442" value="0" style="whiteSpace=wrap;html=1;aspect=fixed;fillColor=#1ba1e2;strokeColor=#006EAF;fontColor=#ffffff;" parent="1" vertex="1">
                    <mxGeometry x="360" y="1000" width="40" height="40" as="geometry"/>
                </mxCell>
                <mxCell id="KGvLCn7wM3emNixortyG-443" value="0" style="whiteSpace=wrap;html=1;aspect=fixed;fillColor=#1ba1e2;strokeColor=#006EAF;fontColor=#ffffff;" parent="1" vertex="1">
                    <mxGeometry x="400" y="1000" width="40" height="40" as="geometry"/>
                </mxCell>
                <mxCell id="KGvLCn7wM3emNixortyG-444" value="0" style="whiteSpace=wrap;html=1;aspect=fixed;fillColor=#1ba1e2;strokeColor=#006EAF;fontColor=#ffffff;" parent="1" vertex="1">
                    <mxGeometry x="440" y="1000" width="40" height="40" as="geometry"/>
                </mxCell>
                <mxCell id="KGvLCn7wM3emNixortyG-445" value="1" style="whiteSpace=wrap;html=1;aspect=fixed;fillColor=#1ba1e2;strokeColor=#006EAF;fontColor=#ffffff;" parent="1" vertex="1">
                    <mxGeometry x="480" y="1000" width="40" height="40" as="geometry"/>
                </mxCell>
                <mxCell id="KGvLCn7wM3emNixortyG-446" value="1" style="whiteSpace=wrap;html=1;aspect=fixed;fillColor=#1ba1e2;strokeColor=#006EAF;fontColor=#ffffff;" parent="1" vertex="1">
                    <mxGeometry x="520" y="1000" width="40" height="40" as="geometry"/>
                </mxCell>
                <mxCell id="KGvLCn7wM3emNixortyG-447" value="8" style="whiteSpace=wrap;html=1;aspect=fixed;" parent="1" vertex="1">
                    <mxGeometry x="320" y="800" width="40" height="40" as="geometry"/>
                </mxCell>
                <mxCell id="KGvLCn7wM3emNixortyG-448" value="전파 set" style="rounded=0;whiteSpace=wrap;html=1;" parent="1" vertex="1">
                    <mxGeometry x="320" y="40" width="80" height="40" as="geometry"/>
                </mxCell>
                <mxCell id="KGvLCn7wM3emNixortyG-449" value="전파 set" style="rounded=0;whiteSpace=wrap;html=1;" parent="1" vertex="1">
                    <mxGeometry x="320" y="80" width="80" height="40" as="geometry"/>
                </mxCell>
                <mxCell id="6" value="0" style="whiteSpace=wrap;html=1;aspect=fixed;fillColor=#6a00ff;strokeColor=#3700CC;fontColor=#ffffff;" vertex="1" parent="1">
                    <mxGeometry x="320" y="200" width="40" height="40" as="geometry"/>
                </mxCell>
                <mxCell id="7" value="1" style="whiteSpace=wrap;html=1;aspect=fixed;fillColor=#6a00ff;strokeColor=#3700CC;fontColor=#ffffff;" vertex="1" parent="1">
                    <mxGeometry x="360" y="200" width="40" height="40" as="geometry"/>
                </mxCell>
                <mxCell id="8" value="2" style="whiteSpace=wrap;html=1;aspect=fixed;fillColor=#6a00ff;strokeColor=#3700CC;fontColor=#ffffff;" vertex="1" parent="1">
                    <mxGeometry x="400" y="200" width="40" height="40" as="geometry"/>
                </mxCell>
                <mxCell id="9" value="3" style="whiteSpace=wrap;html=1;aspect=fixed;fillColor=#6a00ff;strokeColor=#3700CC;fontColor=#ffffff;" vertex="1" parent="1">
                    <mxGeometry x="440" y="200" width="40" height="40" as="geometry"/>
                </mxCell>
                <mxCell id="10" value="4" style="whiteSpace=wrap;html=1;aspect=fixed;fillColor=#6a00ff;strokeColor=#3700CC;fontColor=#ffffff;" vertex="1" parent="1">
                    <mxGeometry x="480" y="200" width="40" height="40" as="geometry"/>
                </mxCell>
                <mxCell id="11" value="5" style="whiteSpace=wrap;html=1;aspect=fixed;fillColor=#6a00ff;strokeColor=#3700CC;fontColor=#ffffff;" vertex="1" parent="1">
                    <mxGeometry x="520" y="200" width="40" height="40" as="geometry"/>
                </mxCell>
                <mxCell id="12" value="0" style="whiteSpace=wrap;html=1;aspect=fixed;fillColor=#6a00ff;strokeColor=#3700CC;fontColor=#ffffff;" vertex="1" parent="1">
                    <mxGeometry x="280" y="240" width="40" height="40" as="geometry"/>
                </mxCell>
                <mxCell id="13" value="&lt;span&gt;1&lt;/span&gt;" style="whiteSpace=wrap;html=1;aspect=fixed;fillColor=#6a00ff;strokeColor=#3700CC;fontColor=#ffffff;" vertex="1" parent="1">
                    <mxGeometry x="280" y="280" width="40" height="40" as="geometry"/>
                </mxCell>
                <mxCell id="14" value="2" style="whiteSpace=wrap;html=1;aspect=fixed;fillColor=#6a00ff;strokeColor=#3700CC;fontColor=#ffffff;" vertex="1" parent="1">
                    <mxGeometry x="280" y="320" width="40" height="40" as="geometry"/>
                </mxCell>
                <mxCell id="15" value="3" style="whiteSpace=wrap;html=1;aspect=fixed;fillColor=#6a00ff;strokeColor=#3700CC;fontColor=#ffffff;" vertex="1" parent="1">
                    <mxGeometry x="280" y="360" width="40" height="40" as="geometry"/>
                </mxCell>
                <mxCell id="16" value="3, 5" style="rounded=0;whiteSpace=wrap;html=1;" vertex="1" parent="1">
                    <mxGeometry x="1480" y="240" width="40" height="40" as="geometry"/>
                </mxCell>
                <mxCell id="17" value="3, 5" style="rounded=0;whiteSpace=wrap;html=1;" vertex="1" parent="1">
                    <mxGeometry x="1560" y="240" width="40" height="40" as="geometry"/>
                </mxCell>
            </root>
        </mxGraphModel>
    </diagram>
</mxfile>